<svg width="104" height="57" viewBox="0 0 104 57" fill="none" xmlns="http://www.w3.org/2000/svg">
<mask id="mask0_224_561" style="mask-type:luminance" maskUnits="userSpaceOnUse" x="0" y="0" width="88" height="27">
<path d="M0 0H87.1944V26.3452H0V0Z" fill="white"/>
</mask>
<g mask="url(#mask0_224_561)">
<path fill-rule="evenodd" clip-rule="evenodd" d="M1.56699 26.2531L43.5897 1.90087L85.6149 26.2531C86.0493 26.5051 86.6319 26.3948 86.9132 26.0034C87.1944 25.6143 87.0689 25.0947 86.6344 24.8427L44.102 0.193559C43.7906 0.0136053 43.3913 0.0136053 43.0824 0.193559L0.547433 24.8427C0.112993 25.0947 -0.0125682 25.6143 0.268688 26.0034C0.552455 26.3948 1.13255 26.5051 1.56699 26.2531Z" fill="#0051CB"/>
</g>
<mask id="mask1_224_561" style="mask-type:luminance" maskUnits="userSpaceOnUse" x="52" y="0" width="52" height="27">
<path d="M52.4792 0.117188H103.181V26.0305H52.4792V0.117188Z" fill="white"/>
</mask>
<g mask="url(#mask1_224_561)">
<path fill-rule="evenodd" clip-rule="evenodd" d="M53.9811 6.88122L61.7106 2.40037L101.441 25.7471C101.875 26.0036 102.458 25.8933 102.741 25.5064C103.025 25.1173 102.905 24.5977 102.47 24.3412L62.2279 0.695303C61.919 0.510851 61.5172 0.510851 61.2033 0.690805C61.2033 0.690805 57.783 2.6748 52.9615 5.46858C52.5246 5.72052 52.4015 6.24238 52.6828 6.63153C52.964 7.02068 53.5466 7.13315 53.9811 6.88122Z" fill="#0051CB"/>
</g>
<path fill-rule="evenodd" clip-rule="evenodd" d="M24.3938 12.2706V5.92053C24.3938 5.45939 23.9744 5.08374 23.4571 5.08374H15.6372C15.1199 5.08374 14.703 5.45939 14.703 5.92053V17.0979C14.703 17.559 15.1199 17.9347 15.6372 17.9347C16.1545 17.9347 16.5739 17.559 16.5739 17.0979V6.75731H22.5229V12.2706C22.5229 12.7318 22.9423 13.1074 23.4571 13.1074C23.9744 13.1074 24.3938 12.7318 24.3938 12.2706Z" fill="#0051CB"/>
<path d="M12.5203 41.3732H6.93533L5.90071 43.9286H4.13281L8.77354 32.5105H10.7022L15.3228 43.9286H13.5549L12.5203 41.3732ZM12.0482 40.1585L9.7278 34.355L7.40744 40.1585H12.0482Z" fill="#302D2D"/>
<path d="M30.8077 38.1968L34.7453 43.9283H32.8469L29.7731 39.4475L26.8501 43.9283H24.9918L28.9093 38.1968L24.9717 32.4473H26.8501L29.9439 36.9461L32.887 32.4473H34.7554L30.8077 38.1968Z" fill="#302D2D"/>
<path d="M50.4513 38.1968L54.3889 43.9283H52.4904L49.4167 39.4475L46.4936 43.9283H44.6353L48.5528 38.1968L44.6152 32.4473H46.4936L49.5874 36.9461L52.5306 32.4473H54.3989L50.4513 38.1968Z" fill="#302D2D"/>
<path d="M72.4251 41.3732H66.8401L65.8055 43.9286H64.0376L68.6783 32.5105H70.6069L75.2276 43.9286H73.4597L72.4251 41.3732ZM71.953 40.1585L69.6326 34.355L67.3122 40.1585H71.953Z" fill="#302D2D"/>
<path d="M98.4672 32.5283V43.9284H96.7997V35.4256L92.5708 43.9284H91.3956L87.1466 35.4076V43.9284H85.4691V32.5283H87.2671L91.9782 41.9489L96.6892 32.5283H98.4672Z" fill="#302D2D"/>
<path d="M14.6269 51.4067V55.5997H14.0141V53.7011H11.6335V55.5997H11.0208V51.4067H11.6335V53.2513H14.0141V51.4067H14.6269Z" fill="#302D2D"/>
<path d="M19.6632 51.4067V55.5997H19.0504V51.4067H19.6632Z" fill="#302D2D"/>
<path d="M27.6358 52.6217C27.5078 52.3833 27.3194 52.1966 27.0733 52.0639C26.8247 51.9267 26.541 51.8569 26.2195 51.8569C25.8905 51.8569 25.5967 51.9267 25.3356 52.0639C25.0744 52.1966 24.866 52.3878 24.7128 52.6397C24.5646 52.8872 24.4918 53.1751 24.4918 53.5035C24.4918 53.8342 24.5646 54.1221 24.7128 54.3673C24.866 54.6147 25.0744 54.8059 25.3356 54.9431C25.5967 55.0759 25.8905 55.1411 26.2195 55.1411C26.674 55.1411 27.0482 55.0219 27.3445 54.7812C27.6384 54.536 27.8091 54.2031 27.8568 53.7824H25.9885V53.3416H28.5097V53.7644C28.4746 54.1064 28.3541 54.4213 28.1481 54.7092C27.9397 54.9971 27.6685 55.2266 27.3345 55.393C26.998 55.555 26.6263 55.636 26.2195 55.636C25.7826 55.636 25.3858 55.546 25.0242 55.366C24.6676 55.1816 24.3863 54.9251 24.1804 54.6012C23.972 54.2773 23.869 53.9129 23.869 53.5035C23.869 53.0964 23.972 52.7297 24.1804 52.4058C24.3863 52.0774 24.6676 51.8209 25.0242 51.641C25.3858 51.4565 25.7826 51.3621 26.2195 51.3621C26.7142 51.3621 27.1537 51.4745 27.5354 51.695C27.9171 51.9177 28.1933 52.2258 28.3691 52.6217H27.6358Z" fill="#302D2D"/>
<path d="M36.3024 51.4067V55.5997H35.6897V53.7011H33.309V55.5997H32.6963V51.4067H33.309V53.2513H35.6897V51.4067H36.3024Z" fill="#302D2D"/>
<path d="M49.6632 56.3918L48.729 55.555C48.5005 55.6135 48.2695 55.645 48.0359 55.645C47.599 55.645 47.2022 55.555 46.8406 55.375C46.484 55.1906 46.2027 54.9341 45.9968 54.6102C45.7884 54.2818 45.6854 53.9129 45.6854 53.5035C45.6854 53.0964 45.7884 52.7297 45.9968 52.4058C46.2027 52.0774 46.484 51.8209 46.8406 51.641C47.2022 51.4565 47.599 51.3621 48.0359 51.3621C48.4704 51.3621 48.8646 51.4565 49.2212 51.641C49.5828 51.8209 49.8641 52.0729 50.065 52.3968C50.2709 52.7207 50.3764 53.0896 50.3764 53.5035C50.3764 53.9062 50.2784 54.2683 50.0851 54.5922C49.8892 54.9117 49.618 55.1591 49.2714 55.339L50.4567 56.3918H49.6632ZM46.3082 53.5035C46.3082 53.8342 46.381 54.1244 46.5292 54.3763C46.6824 54.6282 46.8908 54.8239 47.152 54.9611C47.4131 55.1006 47.707 55.1681 48.0359 55.1681C48.3574 55.1681 48.6487 55.1006 48.9098 54.9611C49.171 54.8239 49.3744 54.6282 49.5226 54.3763C49.6757 54.1244 49.7536 53.8342 49.7536 53.5035C49.7536 53.1683 49.6757 52.8737 49.5226 52.6217C49.3744 52.3698 49.171 52.1786 48.9098 52.0459C48.6537 51.9087 48.3624 51.8389 48.0359 51.8389C47.6994 51.8389 47.4031 51.9087 47.1419 52.0459C46.8858 52.1786 46.6824 52.3698 46.5292 52.6217C46.381 52.8737 46.3082 53.1683 46.3082 53.5035Z" fill="#302D2D"/>
<path d="M55.1827 51.4067V54.0611C55.1827 54.4345 55.2831 54.7089 55.484 54.8888C55.6899 55.0688 55.9762 55.1588 56.3378 55.1588C56.6919 55.1588 56.9707 55.0688 57.1716 54.8888C57.3775 54.7089 57.483 54.4345 57.483 54.0611V51.4067H58.0957V54.0521C58.0957 54.4007 58.0153 54.6954 57.8546 54.9338C57.6989 55.1745 57.488 55.3545 57.2218 55.4737C56.9606 55.5884 56.6618 55.6447 56.3278 55.6447C55.9988 55.6447 55.7 55.5884 55.4338 55.4737C55.1651 55.3545 54.9542 55.1745 54.801 54.9338C54.6453 54.6954 54.5699 54.4007 54.5699 54.0521V51.4067H55.1827Z" fill="#302D2D"/>
<path d="M65.2682 54.664H63.229L62.8473 55.5998H62.2045L63.892 51.4338H64.6052L66.2827 55.5998H65.6398L65.2682 54.664ZM65.0873 54.2231L64.2436 52.1087L63.3998 54.2231H65.0873Z" fill="#302D2D"/>
<path d="M71.0175 55.1588H72.6548V55.5997H70.4048V51.4067H71.0175V55.1588Z" fill="#302D2D"/>
<path d="M77.3041 51.4067V55.5997H76.6914V51.4067H77.3041Z" fill="#302D2D"/>
<path d="M84.6137 51.4067V51.8566H83.338V55.5997H82.7253V51.8566H81.4496V51.4067H84.6137Z" fill="#302D2D"/>
<path d="M92.0228 51.4067L90.506 54.0161V55.5997H89.8933V54.0161L88.3665 51.4067H89.0395L90.1946 53.5302L91.3498 51.4067H92.0228Z" fill="#302D2D"/>
</svg>
