<svg width="113" height="49" viewBox="0 0 113 49" fill="none" xmlns="http://www.w3.org/2000/svg">
<mask id="mask0_224_475" style="mask-type:luminance" maskUnits="userSpaceOnUse" x="0" y="0" width="96" height="29">
<path d="M0 0H95.4855V28.8503H0V0Z" fill="white"/>
</mask>
<g mask="url(#mask0_224_475)">
<path fill-rule="evenodd" clip-rule="evenodd" d="M1.71595 28.7494L47.7344 2.08154L93.7557 28.7494C94.2314 29.0253 94.8694 28.9046 95.1774 28.476C95.4854 28.0498 95.3479 27.4808 94.8722 27.2049L48.2954 0.211886C47.9544 0.0148206 47.5172 0.0148206 47.1789 0.211886L0.599447 27.2049C0.123697 27.4808 -0.0138035 28.0498 0.294197 28.476C0.604946 28.9046 1.2402 29.0253 1.71595 28.7494Z" fill="#0051CB"/>
</g>
<mask id="mask1_224_475" style="mask-type:luminance" maskUnits="userSpaceOnUse" x="57" y="0" width="56" height="29">
<path d="M57.4695 0.128052H112.992V28.5054H57.4695V0.128052Z" fill="white"/>
</mask>
<g mask="url(#mask1_224_475)">
<path fill-rule="evenodd" clip-rule="evenodd" d="M59.114 7.53524L67.5785 2.62832L111.086 28.1951C111.562 28.4759 112.2 28.3552 112.511 27.9315C112.821 27.5053 112.689 26.9363 112.214 26.6555L68.145 0.761124C67.8067 0.559133 67.3667 0.559132 67.023 0.756197C67.023 0.756197 63.2775 2.92884 57.9975 5.98828C57.519 6.26417 57.3842 6.83566 57.6922 7.26181C58.0002 7.68797 58.6382 7.81113 59.114 7.53524Z" fill="#0051CB"/>
</g>
<path fill-rule="evenodd" clip-rule="evenodd" d="M26.7134 13.4373V6.48337C26.7134 5.97839 26.2542 5.56702 25.6877 5.56702H17.1242C16.5577 5.56702 16.1012 5.97839 16.1012 6.48337V18.7236C16.1012 19.2286 16.5577 19.6399 17.1242 19.6399C17.6907 19.6399 18.1499 19.2286 18.1499 18.7236V7.39972H24.6647V13.4373C24.6647 13.9423 25.1239 14.3537 25.6877 14.3537C26.2542 14.3537 26.7134 13.9423 26.7134 13.4373Z" fill="#0051CB"/>
<path d="M14.185 45.7908H8.069L6.936 48.5891H5L10.082 36.0853H12.194L17.254 48.5891H15.318L14.185 45.7908ZM13.668 44.4606L11.127 38.1052L8.586 44.4606H13.668Z" fill="#011918"/>
<path d="M34.2123 42.3126L38.5243 48.5891H36.4453L33.0793 43.6822L29.8783 48.5891H27.8433L32.1333 42.3126L27.8213 36.0164H29.8783L33.2663 40.943L36.4893 36.0164H38.5353L34.2123 42.3126Z" fill="#011918"/>
<path d="M55.7241 42.3126L60.0361 48.5891H57.9571L54.5911 43.6822L51.3901 48.5891H49.3551L53.6451 42.3126L49.3331 36.0164H51.3901L54.7781 40.943L58.0011 36.0164H60.0471L55.7241 42.3126Z" fill="#011918"/>
<path d="M79.788 45.7908H73.672L72.539 48.5891H70.603L75.685 36.0853H77.797L82.857 48.5891H80.921L79.788 45.7908ZM79.271 44.4606L76.73 38.1052L74.189 44.4606H79.271Z" fill="#011918"/>
<path d="M108.307 36.105V48.5891H106.481V39.2777L101.85 48.5891H100.563L95.9104 39.258V48.5891H94.0734V36.105H96.0424L101.201 46.4213L106.36 36.105H108.307Z" fill="#011918"/>
</svg>
